<mxfile host="app.diagrams.net" modified="2024-05-31T16:27:01.994Z" agent="Mozilla/5.0 (Windows NT 10.0; Win64; x64) AppleWebKit/537.36 (KHTML, like Gecko) Chrome/125.0.0.0 Safari/537.36 Edg/125.0.0.0" etag="o4RsGMdoGXb99dnO9wwt" version="24.4.13" type="github">
  <diagram name="Page-1" id="MZ3AWPZT5DLn9-O8bJmc">
    <mxGraphModel dx="3010" dy="3187" grid="1" gridSize="10" guides="1" tooltips="1" connect="1" arrows="1" fold="1" page="1" pageScale="1" pageWidth="827" pageHeight="1169" math="0" shadow="0">
      <root>
        <mxCell id="0" />
        <mxCell id="1" parent="0" />
        <mxCell id="t6TU1K3U_63s48e1gC2M-1" value="USER" style="shape=umlActor;verticalLabelPosition=bottom;verticalAlign=top;html=1;outlineConnect=0;labelBackgroundColor=none;" parent="1" vertex="1">
          <mxGeometry x="-90" y="-940" width="60" height="120" as="geometry" />
        </mxCell>
        <mxCell id="5Mzq799TKKF06reo93Cx-96" style="edgeStyle=none;curved=1;rounded=0;orthogonalLoop=1;jettySize=auto;html=1;exitX=0;exitY=0.5;exitDx=0;exitDy=0;entryX=1;entryY=0;entryDx=0;entryDy=0;fontSize=12;startSize=8;endSize=8;labelBackgroundColor=none;fontColor=default;" parent="1" source="5Mzq799TKKF06reo93Cx-27" target="ilMCgSNwz-HgjAsezBHl-24" edge="1">
          <mxGeometry relative="1" as="geometry" />
        </mxCell>
        <mxCell id="ilMCgSNwz-HgjAsezBHl-24" value="GERER&amp;nbsp;&lt;div&gt;PRODUITS&lt;/div&gt;" style="ellipse;whiteSpace=wrap;html=1;spacingTop=0;labelBackgroundColor=none;" parent="1" vertex="1">
          <mxGeometry x="-827" y="200" width="100" height="80" as="geometry" />
        </mxCell>
        <mxCell id="5Mzq799TKKF06reo93Cx-95" style="edgeStyle=none;curved=1;rounded=0;orthogonalLoop=1;jettySize=auto;html=1;exitX=0;exitY=1;exitDx=0;exitDy=0;fontSize=12;startSize=8;endSize=8;entryX=0.5;entryY=0;entryDx=0;entryDy=0;labelBackgroundColor=none;fontColor=default;" parent="1" source="5Mzq799TKKF06reo93Cx-27" target="ilMCgSNwz-HgjAsezBHl-23" edge="1">
          <mxGeometry relative="1" as="geometry">
            <mxPoint x="-270" y="-250" as="sourcePoint" />
          </mxGeometry>
        </mxCell>
        <mxCell id="ilMCgSNwz-HgjAsezBHl-23" value="GERER&amp;nbsp;&lt;div&gt;VENTES&lt;/div&gt;" style="ellipse;whiteSpace=wrap;html=1;labelBackgroundColor=none;" parent="1" vertex="1">
          <mxGeometry x="-530" y="200" width="100" height="80" as="geometry" />
        </mxCell>
        <mxCell id="5Mzq799TKKF06reo93Cx-94" style="edgeStyle=none;curved=1;rounded=0;orthogonalLoop=1;jettySize=auto;html=1;exitX=0.5;exitY=1;exitDx=0;exitDy=0;entryX=0.5;entryY=0;entryDx=0;entryDy=0;fontSize=12;startSize=8;endSize=8;labelBackgroundColor=none;fontColor=default;" parent="1" source="5Mzq799TKKF06reo93Cx-27" target="ilMCgSNwz-HgjAsezBHl-22" edge="1">
          <mxGeometry relative="1" as="geometry" />
        </mxCell>
        <mxCell id="ilMCgSNwz-HgjAsezBHl-22" value="GERER&lt;div&gt;DEPENSE&lt;/div&gt;" style="ellipse;whiteSpace=wrap;html=1;labelBackgroundColor=none;" parent="1" vertex="1">
          <mxGeometry x="-210" y="200" width="100" height="80" as="geometry" />
        </mxCell>
        <mxCell id="5Mzq799TKKF06reo93Cx-93" style="edgeStyle=none;curved=1;rounded=0;orthogonalLoop=1;jettySize=auto;html=1;exitX=1;exitY=1;exitDx=0;exitDy=0;entryX=0;entryY=0;entryDx=0;entryDy=0;fontSize=12;startSize=8;endSize=8;labelBackgroundColor=none;fontColor=default;" parent="1" source="5Mzq799TKKF06reo93Cx-27" target="ilMCgSNwz-HgjAsezBHl-21" edge="1">
          <mxGeometry relative="1" as="geometry" />
        </mxCell>
        <mxCell id="ilMCgSNwz-HgjAsezBHl-21" value="GERER&lt;div&gt;APPROVISIONNEMENT&lt;/div&gt;" style="ellipse;whiteSpace=wrap;html=1;labelBackgroundColor=none;" parent="1" vertex="1">
          <mxGeometry x="123.5" y="200" width="153" height="80" as="geometry" />
        </mxCell>
        <mxCell id="5Mzq799TKKF06reo93Cx-89" style="edgeStyle=none;curved=1;rounded=0;orthogonalLoop=1;jettySize=auto;html=1;exitX=0.5;exitY=0;exitDx=0;exitDy=0;entryX=0;entryY=1;entryDx=0;entryDy=0;fontSize=12;startSize=8;endSize=8;labelBackgroundColor=none;fontColor=default;" parent="1" source="ilMCgSNwz-HgjAsezBHl-20" target="5Mzq799TKKF06reo93Cx-26" edge="1">
          <mxGeometry relative="1" as="geometry" />
        </mxCell>
        <mxCell id="ilMCgSNwz-HgjAsezBHl-20" value="GERER&lt;div&gt;PRESTATION&lt;/div&gt;" style="ellipse;whiteSpace=wrap;html=1;labelBackgroundColor=none;" parent="1" vertex="1">
          <mxGeometry x="650" y="200" width="100" height="80" as="geometry" />
        </mxCell>
        <mxCell id="5Mzq799TKKF06reo93Cx-91" style="edgeStyle=none;curved=1;rounded=0;orthogonalLoop=1;jettySize=auto;html=1;exitX=0;exitY=0;exitDx=0;exitDy=0;entryX=1;entryY=1;entryDx=0;entryDy=0;fontSize=12;startSize=8;endSize=8;labelBackgroundColor=none;fontColor=default;" parent="1" source="ilMCgSNwz-HgjAsezBHl-18" target="5Mzq799TKKF06reo93Cx-26" edge="1">
          <mxGeometry relative="1" as="geometry" />
        </mxCell>
        <mxCell id="ilMCgSNwz-HgjAsezBHl-18" value="GERER&lt;div&gt;TARIF&lt;/div&gt;" style="ellipse;whiteSpace=wrap;html=1;labelBackgroundColor=none;" parent="1" vertex="1">
          <mxGeometry x="1050" y="190" width="100" height="80" as="geometry" />
        </mxCell>
        <mxCell id="5Mzq799TKKF06reo93Cx-159" style="edgeStyle=none;curved=1;rounded=0;orthogonalLoop=1;jettySize=auto;html=1;exitX=0.5;exitY=1;exitDx=0;exitDy=0;entryX=0.5;entryY=0;entryDx=0;entryDy=0;fontSize=12;startSize=8;endSize=8;labelBackgroundColor=none;fontColor=default;" parent="1" source="5Mzq799TKKF06reo93Cx-25" target="5Mzq799TKKF06reo93Cx-100" edge="1">
          <mxGeometry relative="1" as="geometry" />
        </mxCell>
        <mxCell id="5Mzq799TKKF06reo93Cx-25" value="CRÃ‰ER&lt;div&gt;DJAGO&lt;/div&gt;" style="ellipse;whiteSpace=wrap;html=1;labelBackgroundColor=none;" parent="1" vertex="1">
          <mxGeometry x="320" y="-730" width="120" height="80" as="geometry" />
        </mxCell>
        <mxCell id="5Mzq799TKKF06reo93Cx-163" style="edgeStyle=none;curved=1;rounded=0;orthogonalLoop=1;jettySize=auto;html=1;exitX=0;exitY=0;exitDx=0;exitDy=0;entryX=1;entryY=1;entryDx=0;entryDy=0;fontSize=12;startSize=8;endSize=8;labelBackgroundColor=none;fontColor=default;" parent="1" source="5Mzq799TKKF06reo93Cx-26" target="5Mzq799TKKF06reo93Cx-25" edge="1">
          <mxGeometry relative="1" as="geometry" />
        </mxCell>
        <mxCell id="5Mzq799TKKF06reo93Cx-26" value="DJAGO&lt;div&gt;SERVICE&lt;/div&gt;" style="ellipse;whiteSpace=wrap;html=1;labelBackgroundColor=none;" parent="1" vertex="1">
          <mxGeometry x="850" y="-310" width="120" height="80" as="geometry" />
        </mxCell>
        <mxCell id="5Mzq799TKKF06reo93Cx-164" style="edgeStyle=none;curved=1;rounded=0;orthogonalLoop=1;jettySize=auto;html=1;exitX=1;exitY=0;exitDx=0;exitDy=0;entryX=0;entryY=1;entryDx=0;entryDy=0;fontSize=12;startSize=8;endSize=8;labelBackgroundColor=none;fontColor=default;" parent="1" source="5Mzq799TKKF06reo93Cx-27" target="5Mzq799TKKF06reo93Cx-25" edge="1">
          <mxGeometry relative="1" as="geometry" />
        </mxCell>
        <mxCell id="5Mzq799TKKF06reo93Cx-27" value="DJAGO&lt;div&gt;STOCK&lt;/div&gt;" style="ellipse;whiteSpace=wrap;html=1;labelBackgroundColor=none;" parent="1" vertex="1">
          <mxGeometry x="-290" y="-310" width="120" height="80" as="geometry" />
        </mxCell>
        <mxCell id="5Mzq799TKKF06reo93Cx-59" style="edgeStyle=none;curved=1;rounded=0;orthogonalLoop=1;jettySize=auto;html=1;exitX=0.5;exitY=1;exitDx=0;exitDy=0;entryX=1;entryY=0;entryDx=0;entryDy=0;fontSize=12;startSize=8;endSize=8;labelBackgroundColor=none;fontColor=default;" parent="1" source="ilMCgSNwz-HgjAsezBHl-24" target="5Mzq799TKKF06reo93Cx-34" edge="1">
          <mxGeometry relative="1" as="geometry" />
        </mxCell>
        <mxCell id="5Mzq799TKKF06reo93Cx-34" value="MODIFIER&lt;div&gt;PRODUITS&lt;/div&gt;" style="ellipse;whiteSpace=wrap;html=1;labelBackgroundColor=none;" parent="1" vertex="1">
          <mxGeometry x="-1020" y="530" width="120" height="80" as="geometry" />
        </mxCell>
        <mxCell id="5Mzq799TKKF06reo93Cx-58" style="edgeStyle=none;curved=1;rounded=0;orthogonalLoop=1;jettySize=auto;html=1;exitX=0;exitY=1;exitDx=0;exitDy=0;entryX=1;entryY=0;entryDx=0;entryDy=0;fontSize=12;startSize=8;endSize=8;labelBackgroundColor=none;fontColor=default;" parent="1" source="ilMCgSNwz-HgjAsezBHl-24" target="5Mzq799TKKF06reo93Cx-35" edge="1">
          <mxGeometry relative="1" as="geometry" />
        </mxCell>
        <mxCell id="5Mzq799TKKF06reo93Cx-35" value="&lt;div&gt;CONSULTER&lt;/div&gt;&lt;div&gt;PRODUITS&lt;/div&gt;" style="ellipse;whiteSpace=wrap;html=1;labelBackgroundColor=none;" parent="1" vertex="1">
          <mxGeometry x="-1100" y="430" width="120" height="80" as="geometry" />
        </mxCell>
        <mxCell id="5Mzq799TKKF06reo93Cx-57" style="edgeStyle=none;curved=1;rounded=0;orthogonalLoop=1;jettySize=auto;html=1;exitX=0;exitY=0.5;exitDx=0;exitDy=0;entryX=1;entryY=0;entryDx=0;entryDy=0;fontSize=12;startSize=8;endSize=8;labelBackgroundColor=none;fontColor=default;" parent="1" source="ilMCgSNwz-HgjAsezBHl-24" target="5Mzq799TKKF06reo93Cx-36" edge="1">
          <mxGeometry relative="1" as="geometry">
            <Array as="points">
              <mxPoint x="-820" y="230" />
            </Array>
          </mxGeometry>
        </mxCell>
        <mxCell id="5Mzq799TKKF06reo93Cx-36" value="&lt;div&gt;ENREGISTRER&lt;/div&gt;&lt;div&gt;PRODUITS&lt;/div&gt;" style="ellipse;whiteSpace=wrap;html=1;labelBackgroundColor=none;" parent="1" vertex="1">
          <mxGeometry x="-1140" y="325" width="120" height="70" as="geometry" />
        </mxCell>
        <mxCell id="5Mzq799TKKF06reo93Cx-60" style="edgeStyle=none;curved=1;rounded=0;orthogonalLoop=1;jettySize=auto;html=1;exitX=0.5;exitY=1;exitDx=0;exitDy=0;entryX=0.5;entryY=0;entryDx=0;entryDy=0;fontSize=12;startSize=8;endSize=8;labelBackgroundColor=none;fontColor=default;" parent="1" source="ilMCgSNwz-HgjAsezBHl-24" target="5Mzq799TKKF06reo93Cx-38" edge="1">
          <mxGeometry relative="1" as="geometry" />
        </mxCell>
        <mxCell id="5Mzq799TKKF06reo93Cx-38" value="SUPPRIMER&lt;div&gt;PRODUITS&lt;/div&gt;" style="ellipse;whiteSpace=wrap;html=1;labelBackgroundColor=none;" parent="1" vertex="1">
          <mxGeometry x="-850" y="560" width="120" height="80" as="geometry" />
        </mxCell>
        <mxCell id="5Mzq799TKKF06reo93Cx-63" style="edgeStyle=none;curved=1;rounded=0;orthogonalLoop=1;jettySize=auto;html=1;exitX=0.5;exitY=1;exitDx=0;exitDy=0;entryX=1;entryY=0;entryDx=0;entryDy=0;fontSize=12;startSize=8;endSize=8;labelBackgroundColor=none;fontColor=default;" parent="1" source="ilMCgSNwz-HgjAsezBHl-23" target="5Mzq799TKKF06reo93Cx-40" edge="1">
          <mxGeometry relative="1" as="geometry" />
        </mxCell>
        <mxCell id="5Mzq799TKKF06reo93Cx-40" value="CONSULTER&lt;div&gt;VENTES&lt;/div&gt;" style="ellipse;whiteSpace=wrap;html=1;labelBackgroundColor=none;" parent="1" vertex="1">
          <mxGeometry x="-660" y="430" width="120" height="80" as="geometry" />
        </mxCell>
        <mxCell id="5Mzq799TKKF06reo93Cx-61" style="edgeStyle=none;curved=1;rounded=0;orthogonalLoop=1;jettySize=auto;html=1;exitX=0;exitY=1;exitDx=0;exitDy=0;entryX=1;entryY=0;entryDx=0;entryDy=0;fontSize=12;startSize=8;endSize=8;labelBackgroundColor=none;fontColor=default;" parent="1" source="ilMCgSNwz-HgjAsezBHl-23" target="5Mzq799TKKF06reo93Cx-41" edge="1">
          <mxGeometry relative="1" as="geometry" />
        </mxCell>
        <mxCell id="5Mzq799TKKF06reo93Cx-62" style="edgeStyle=none;curved=1;rounded=0;orthogonalLoop=1;jettySize=auto;html=1;fontSize=12;startSize=8;endSize=8;exitX=1;exitY=0.5;exitDx=0;exitDy=0;labelBackgroundColor=none;fontColor=default;" parent="1" source="5Mzq799TKKF06reo93Cx-36" target="5Mzq799TKKF06reo93Cx-41" edge="1">
          <mxGeometry relative="1" as="geometry" />
        </mxCell>
        <mxCell id="5Mzq799TKKF06reo93Cx-41" value="EFFECTUER&lt;div&gt;VENTES&lt;/div&gt;" style="ellipse;whiteSpace=wrap;html=1;labelBackgroundColor=none;" parent="1" vertex="1">
          <mxGeometry x="-700" y="325" width="120" height="70" as="geometry" />
        </mxCell>
        <mxCell id="5Mzq799TKKF06reo93Cx-64" style="edgeStyle=none;curved=1;rounded=0;orthogonalLoop=1;jettySize=auto;html=1;exitX=1;exitY=1;exitDx=0;exitDy=0;entryX=0.5;entryY=0;entryDx=0;entryDy=0;fontSize=12;startSize=8;endSize=8;labelBackgroundColor=none;fontColor=default;" parent="1" source="ilMCgSNwz-HgjAsezBHl-23" target="5Mzq799TKKF06reo93Cx-42" edge="1">
          <mxGeometry relative="1" as="geometry" />
        </mxCell>
        <mxCell id="5Mzq799TKKF06reo93Cx-42" value="SUPPRIMER&lt;div&gt;VENTES&lt;/div&gt;" style="ellipse;whiteSpace=wrap;html=1;labelBackgroundColor=none;" parent="1" vertex="1">
          <mxGeometry x="-500" y="440" width="120" height="80" as="geometry" />
        </mxCell>
        <mxCell id="5Mzq799TKKF06reo93Cx-67" style="edgeStyle=none;curved=1;rounded=0;orthogonalLoop=1;jettySize=auto;html=1;exitX=0.5;exitY=1;exitDx=0;exitDy=0;entryX=0.5;entryY=0;entryDx=0;entryDy=0;fontSize=12;startSize=8;endSize=8;labelBackgroundColor=none;fontColor=default;" parent="1" source="ilMCgSNwz-HgjAsezBHl-22" target="5Mzq799TKKF06reo93Cx-43" edge="1">
          <mxGeometry relative="1" as="geometry" />
        </mxCell>
        <mxCell id="5Mzq799TKKF06reo93Cx-43" value="SUPPRINER&lt;div&gt;DEPENSE&lt;/div&gt;" style="ellipse;whiteSpace=wrap;html=1;labelBackgroundColor=none;" parent="1" vertex="1">
          <mxGeometry x="-245" y="530" width="120" height="80" as="geometry" />
        </mxCell>
        <mxCell id="5Mzq799TKKF06reo93Cx-66" style="edgeStyle=none;curved=1;rounded=0;orthogonalLoop=1;jettySize=auto;html=1;exitX=0;exitY=1;exitDx=0;exitDy=0;entryX=0.5;entryY=0;entryDx=0;entryDy=0;fontSize=12;startSize=8;endSize=8;labelBackgroundColor=none;fontColor=default;" parent="1" source="ilMCgSNwz-HgjAsezBHl-22" target="5Mzq799TKKF06reo93Cx-44" edge="1">
          <mxGeometry relative="1" as="geometry" />
        </mxCell>
        <mxCell id="5Mzq799TKKF06reo93Cx-44" value="CONSULTER&lt;div&gt;DEPENSE&lt;/div&gt;" style="ellipse;whiteSpace=wrap;html=1;labelBackgroundColor=none;" parent="1" vertex="1">
          <mxGeometry x="-325" y="430" width="120" height="80" as="geometry" />
        </mxCell>
        <mxCell id="5Mzq799TKKF06reo93Cx-65" style="edgeStyle=none;curved=1;rounded=0;orthogonalLoop=1;jettySize=auto;html=1;exitX=0;exitY=0.5;exitDx=0;exitDy=0;entryX=1;entryY=0;entryDx=0;entryDy=0;fontSize=12;startSize=8;endSize=8;labelBackgroundColor=none;fontColor=default;" parent="1" source="ilMCgSNwz-HgjAsezBHl-22" target="5Mzq799TKKF06reo93Cx-45" edge="1">
          <mxGeometry relative="1" as="geometry" />
        </mxCell>
        <mxCell id="5Mzq799TKKF06reo93Cx-45" value="&lt;div&gt;ENREGISTRER&lt;/div&gt;&lt;div&gt;DEPENSE&lt;/div&gt;" style="ellipse;whiteSpace=wrap;html=1;labelBackgroundColor=none;" parent="1" vertex="1">
          <mxGeometry x="-365" y="325" width="120" height="70" as="geometry" />
        </mxCell>
        <mxCell id="5Mzq799TKKF06reo93Cx-69" style="edgeStyle=none;curved=1;rounded=0;orthogonalLoop=1;jettySize=auto;html=1;exitX=0;exitY=1;exitDx=0;exitDy=0;entryX=1;entryY=0;entryDx=0;entryDy=0;fontSize=12;startSize=8;endSize=8;labelBackgroundColor=none;fontColor=default;" parent="1" source="ilMCgSNwz-HgjAsezBHl-21" target="5Mzq799TKKF06reo93Cx-48" edge="1">
          <mxGeometry relative="1" as="geometry" />
        </mxCell>
        <mxCell id="5Mzq799TKKF06reo93Cx-48" value="CONSULTER&lt;div&gt;APPROVISINNEMENTS&lt;br&gt;&lt;/div&gt;" style="ellipse;whiteSpace=wrap;html=1;labelBackgroundColor=none;" parent="1" vertex="1">
          <mxGeometry y="447.5" width="155" height="80" as="geometry" />
        </mxCell>
        <mxCell id="5Mzq799TKKF06reo93Cx-68" style="edgeStyle=none;curved=1;rounded=0;orthogonalLoop=1;jettySize=auto;html=1;exitX=0;exitY=0.5;exitDx=0;exitDy=0;entryX=0.5;entryY=0;entryDx=0;entryDy=0;fontSize=12;startSize=8;endSize=8;labelBackgroundColor=none;fontColor=default;" parent="1" source="ilMCgSNwz-HgjAsezBHl-21" target="5Mzq799TKKF06reo93Cx-49" edge="1">
          <mxGeometry relative="1" as="geometry" />
        </mxCell>
        <mxCell id="5Mzq799TKKF06reo93Cx-49" value="ENREGISTRER&lt;div&gt;APPROVISINNEMENT&lt;/div&gt;" style="ellipse;whiteSpace=wrap;html=1;labelBackgroundColor=none;" parent="1" vertex="1">
          <mxGeometry x="-15" y="320" width="145" height="70" as="geometry" />
        </mxCell>
        <mxCell id="5Mzq799TKKF06reo93Cx-70" style="edgeStyle=none;curved=1;rounded=0;orthogonalLoop=1;jettySize=auto;html=1;fontSize=12;startSize=8;endSize=8;entryX=0;entryY=0;entryDx=0;entryDy=0;labelBackgroundColor=none;fontColor=default;" parent="1" source="ilMCgSNwz-HgjAsezBHl-21" target="5Mzq799TKKF06reo93Cx-50" edge="1">
          <mxGeometry relative="1" as="geometry" />
        </mxCell>
        <mxCell id="5Mzq799TKKF06reo93Cx-50" value="SUPPRIMER&lt;div&gt;APPROVISIONNEMENTS&lt;/div&gt;" style="ellipse;whiteSpace=wrap;html=1;labelBackgroundColor=none;" parent="1" vertex="1">
          <mxGeometry x="190" y="465" width="150" height="80" as="geometry" />
        </mxCell>
        <mxCell id="5Mzq799TKKF06reo93Cx-74" style="edgeStyle=none;curved=1;rounded=0;orthogonalLoop=1;jettySize=auto;html=1;exitX=1;exitY=1;exitDx=0;exitDy=0;fontSize=12;startSize=8;endSize=8;entryX=0.5;entryY=0;entryDx=0;entryDy=0;labelBackgroundColor=none;fontColor=default;" parent="1" source="ilMCgSNwz-HgjAsezBHl-20" target="5Mzq799TKKF06reo93Cx-52" edge="1">
          <mxGeometry relative="1" as="geometry">
            <mxPoint x="750.5555555555557" y="240" as="sourcePoint" />
          </mxGeometry>
        </mxCell>
        <mxCell id="5Mzq799TKKF06reo93Cx-52" value="MODIFIER&lt;div&gt;PRESTATIONS&lt;/div&gt;" style="ellipse;whiteSpace=wrap;html=1;labelBackgroundColor=none;" parent="1" vertex="1">
          <mxGeometry x="690" y="545" width="120" height="80" as="geometry" />
        </mxCell>
        <mxCell id="5Mzq799TKKF06reo93Cx-72" style="edgeStyle=none;curved=1;rounded=0;orthogonalLoop=1;jettySize=auto;html=1;exitX=0.5;exitY=1;exitDx=0;exitDy=0;entryX=0.5;entryY=0;entryDx=0;entryDy=0;fontSize=12;startSize=8;endSize=8;labelBackgroundColor=none;fontColor=default;" parent="1" source="ilMCgSNwz-HgjAsezBHl-20" target="5Mzq799TKKF06reo93Cx-53" edge="1">
          <mxGeometry relative="1" as="geometry" />
        </mxCell>
        <mxCell id="5Mzq799TKKF06reo93Cx-53" value="&lt;div&gt;CONSULTER&lt;/div&gt;&lt;div&gt;PRESTAION&lt;/div&gt;" style="ellipse;whiteSpace=wrap;html=1;labelBackgroundColor=none;" parent="1" vertex="1">
          <mxGeometry x="610" y="445" width="120" height="85" as="geometry" />
        </mxCell>
        <mxCell id="5Mzq799TKKF06reo93Cx-71" style="edgeStyle=none;curved=1;rounded=0;orthogonalLoop=1;jettySize=auto;html=1;exitX=0;exitY=1;exitDx=0;exitDy=0;entryX=0.5;entryY=0;entryDx=0;entryDy=0;fontSize=12;startSize=8;endSize=8;labelBackgroundColor=none;fontColor=default;" parent="1" source="ilMCgSNwz-HgjAsezBHl-20" target="5Mzq799TKKF06reo93Cx-54" edge="1">
          <mxGeometry relative="1" as="geometry" />
        </mxCell>
        <mxCell id="5Mzq799TKKF06reo93Cx-54" value="&lt;div&gt;ENREGISTRER&lt;/div&gt;&lt;div&gt;prestation&lt;/div&gt;" style="ellipse;whiteSpace=wrap;html=1;labelBackgroundColor=none;" parent="1" vertex="1">
          <mxGeometry x="570" y="340" width="120" height="70" as="geometry" />
        </mxCell>
        <mxCell id="5Mzq799TKKF06reo93Cx-79" style="edgeStyle=none;curved=1;rounded=0;orthogonalLoop=1;jettySize=auto;html=1;exitX=1;exitY=0.5;exitDx=0;exitDy=0;entryX=0;entryY=0;entryDx=0;entryDy=0;fontSize=12;startSize=8;endSize=8;labelBackgroundColor=none;fontColor=default;" parent="1" source="ilMCgSNwz-HgjAsezBHl-20" target="5Mzq799TKKF06reo93Cx-55" edge="1">
          <mxGeometry relative="1" as="geometry" />
        </mxCell>
        <mxCell id="5Mzq799TKKF06reo93Cx-55" value="SUPPRIMER&lt;div&gt;PRESTATION&lt;/div&gt;" style="ellipse;whiteSpace=wrap;html=1;labelBackgroundColor=none;" parent="1" vertex="1">
          <mxGeometry x="800" y="385" width="130" height="80" as="geometry" />
        </mxCell>
        <mxCell id="5Mzq799TKKF06reo93Cx-85" style="edgeStyle=none;curved=1;rounded=0;orthogonalLoop=1;jettySize=auto;html=1;exitX=0;exitY=1;exitDx=0;exitDy=0;entryX=1;entryY=0;entryDx=0;entryDy=0;fontSize=12;startSize=8;endSize=8;labelBackgroundColor=none;fontColor=default;" parent="1" source="5Mzq799TKKF06reo93Cx-75" target="5Mzq799TKKF06reo93Cx-77" edge="1">
          <mxGeometry relative="1" as="geometry" />
        </mxCell>
        <mxCell id="5Mzq799TKKF06reo93Cx-86" style="edgeStyle=none;curved=1;rounded=0;orthogonalLoop=1;jettySize=auto;html=1;exitX=0.5;exitY=1;exitDx=0;exitDy=0;entryX=0.5;entryY=0;entryDx=0;entryDy=0;fontSize=12;startSize=8;endSize=8;labelBackgroundColor=none;fontColor=default;" parent="1" source="ilMCgSNwz-HgjAsezBHl-18" target="5Mzq799TKKF06reo93Cx-75" edge="1">
          <mxGeometry relative="1" as="geometry" />
        </mxCell>
        <mxCell id="5Mzq799TKKF06reo93Cx-75" value="MODIFIER&lt;div&gt;TARIF&lt;/div&gt;" style="ellipse;whiteSpace=wrap;html=1;labelBackgroundColor=none;" parent="1" vertex="1">
          <mxGeometry x="1090" y="410" width="120" height="80" as="geometry" />
        </mxCell>
        <mxCell id="5Mzq799TKKF06reo93Cx-80" style="edgeStyle=none;curved=1;rounded=0;orthogonalLoop=1;jettySize=auto;html=1;exitX=0;exitY=0.5;exitDx=0;exitDy=0;entryX=0.5;entryY=0;entryDx=0;entryDy=0;fontSize=12;startSize=8;endSize=8;labelBackgroundColor=none;fontColor=default;" parent="1" source="ilMCgSNwz-HgjAsezBHl-18" target="5Mzq799TKKF06reo93Cx-77" edge="1">
          <mxGeometry relative="1" as="geometry" />
        </mxCell>
        <mxCell id="5Mzq799TKKF06reo93Cx-81" style="edgeStyle=none;curved=1;rounded=0;orthogonalLoop=1;jettySize=auto;html=1;exitX=1;exitY=1;exitDx=0;exitDy=0;entryX=0;entryY=0;entryDx=0;entryDy=0;fontSize=12;startSize=8;endSize=8;labelBackgroundColor=none;fontColor=default;" parent="1" source="5Mzq799TKKF06reo93Cx-54" target="5Mzq799TKKF06reo93Cx-77" edge="1">
          <mxGeometry relative="1" as="geometry" />
        </mxCell>
        <mxCell id="5Mzq799TKKF06reo93Cx-77" value="&lt;div&gt;APPLIQUER&lt;/div&gt;&lt;div&gt;TARIF&lt;/div&gt;" style="ellipse;whiteSpace=wrap;html=1;labelBackgroundColor=none;" parent="1" vertex="1">
          <mxGeometry x="910" y="510" width="120" height="70" as="geometry" />
        </mxCell>
        <mxCell id="5Mzq799TKKF06reo93Cx-87" style="edgeStyle=none;curved=1;rounded=0;orthogonalLoop=1;jettySize=auto;html=1;exitX=1;exitY=1;exitDx=0;exitDy=0;entryX=0;entryY=0;entryDx=0;entryDy=0;fontSize=12;startSize=8;endSize=8;labelBackgroundColor=none;fontColor=default;" parent="1" source="ilMCgSNwz-HgjAsezBHl-18" target="5Mzq799TKKF06reo93Cx-78" edge="1">
          <mxGeometry relative="1" as="geometry" />
        </mxCell>
        <mxCell id="5Mzq799TKKF06reo93Cx-78" value="SUPPRIMER&lt;div&gt;TARIF&lt;/div&gt;" style="ellipse;whiteSpace=wrap;html=1;labelBackgroundColor=none;" parent="1" vertex="1">
          <mxGeometry x="1230" y="350" width="120" height="80" as="geometry" />
        </mxCell>
        <mxCell id="5Mzq799TKKF06reo93Cx-161" style="edgeStyle=none;curved=1;rounded=0;orthogonalLoop=1;jettySize=auto;html=1;exitX=1;exitY=0.5;exitDx=0;exitDy=0;entryX=0;entryY=0.5;entryDx=0;entryDy=0;fontSize=12;startSize=8;endSize=8;labelBackgroundColor=none;fontColor=default;" parent="1" source="5Mzq799TKKF06reo93Cx-100" target="5Mzq799TKKF06reo93Cx-26" edge="1">
          <mxGeometry relative="1" as="geometry" />
        </mxCell>
        <mxCell id="5Mzq799TKKF06reo93Cx-162" style="edgeStyle=none;curved=1;rounded=0;orthogonalLoop=1;jettySize=auto;html=1;exitX=0;exitY=0.5;exitDx=0;exitDy=0;entryX=1;entryY=0.5;entryDx=0;entryDy=0;fontSize=12;startSize=8;endSize=8;labelBackgroundColor=none;fontColor=default;" parent="1" source="5Mzq799TKKF06reo93Cx-100" target="5Mzq799TKKF06reo93Cx-27" edge="1">
          <mxGeometry relative="1" as="geometry" />
        </mxCell>
        <mxCell id="5Mzq799TKKF06reo93Cx-100" value="LOGIN&lt;div&gt;DJAGO&lt;/div&gt;" style="ellipse;whiteSpace=wrap;html=1;labelBackgroundColor=none;" parent="1" vertex="1">
          <mxGeometry x="293" y="-410" width="117" height="80" as="geometry" />
        </mxCell>
        <mxCell id="5Mzq799TKKF06reo93Cx-109" value="ADMIN" style="shape=umlActor;verticalLabelPosition=bottom;verticalAlign=top;html=1;outlineConnect=0;labelBackgroundColor=none;" parent="1" vertex="1">
          <mxGeometry x="790" y="-1280" width="60" height="120" as="geometry" />
        </mxCell>
        <mxCell id="5Mzq799TKKF06reo93Cx-117" value="GERER&lt;div&gt;DJQGOS&lt;/div&gt;" style="ellipse;whiteSpace=wrap;html=1;labelBackgroundColor=none;" parent="1" vertex="1">
          <mxGeometry x="760" y="-950" width="120" height="80" as="geometry" />
        </mxCell>
        <mxCell id="5Mzq799TKKF06reo93Cx-121" value="" style="endArrow=none;html=1;rounded=0;fontSize=12;startSize=8;endSize=8;curved=1;entryX=0.5;entryY=0.5;entryDx=0;entryDy=0;entryPerimeter=0;exitX=0.5;exitY=0;exitDx=0;exitDy=0;labelBackgroundColor=none;fontColor=default;" parent="1" source="5Mzq799TKKF06reo93Cx-117" target="5Mzq799TKKF06reo93Cx-109" edge="1">
          <mxGeometry width="50" height="50" relative="1" as="geometry">
            <mxPoint x="860" y="-860" as="sourcePoint" />
            <mxPoint x="910" y="-910" as="targetPoint" />
          </mxGeometry>
        </mxCell>
        <mxCell id="5Mzq799TKKF06reo93Cx-122" value="" style="endArrow=none;html=1;rounded=0;fontSize=12;startSize=8;endSize=8;curved=1;exitX=0.5;exitY=0.5;exitDx=0;exitDy=0;exitPerimeter=0;entryX=0;entryY=0;entryDx=0;entryDy=0;labelBackgroundColor=none;fontColor=default;" parent="1" source="t6TU1K3U_63s48e1gC2M-1" target="5Mzq799TKKF06reo93Cx-25" edge="1">
          <mxGeometry width="50" height="50" relative="1" as="geometry">
            <mxPoint x="860" y="-860" as="sourcePoint" />
            <mxPoint x="910" y="-910" as="targetPoint" />
          </mxGeometry>
        </mxCell>
        <mxCell id="5Mzq799TKKF06reo93Cx-141" style="edgeStyle=none;curved=1;rounded=0;orthogonalLoop=1;jettySize=auto;html=1;exitX=1;exitY=1;exitDx=0;exitDy=0;entryX=0;entryY=0;entryDx=0;entryDy=0;fontSize=12;startSize=8;endSize=8;labelBackgroundColor=none;fontColor=default;" parent="1" source="5Mzq799TKKF06reo93Cx-117" target="5Mzq799TKKF06reo93Cx-125" edge="1">
          <mxGeometry relative="1" as="geometry" />
        </mxCell>
        <mxCell id="5Mzq799TKKF06reo93Cx-125" value="CONSULTER&lt;div&gt;DJAGOS&lt;/div&gt;" style="ellipse;whiteSpace=wrap;html=1;labelBackgroundColor=none;" parent="1" vertex="1">
          <mxGeometry x="1020" y="-800" width="120" height="80" as="geometry" />
        </mxCell>
        <mxCell id="5Mzq799TKKF06reo93Cx-142" style="edgeStyle=none;curved=1;rounded=0;orthogonalLoop=1;jettySize=auto;html=1;exitX=0.5;exitY=1;exitDx=0;exitDy=0;entryX=0.5;entryY=0;entryDx=0;entryDy=0;fontSize=12;startSize=8;endSize=8;labelBackgroundColor=none;fontColor=default;" parent="1" source="5Mzq799TKKF06reo93Cx-117" target="5Mzq799TKKF06reo93Cx-126" edge="1">
          <mxGeometry relative="1" as="geometry" />
        </mxCell>
        <mxCell id="5Mzq799TKKF06reo93Cx-126" value="BLOQUER&lt;div&gt;DJAGO&lt;/div&gt;" style="ellipse;whiteSpace=wrap;html=1;labelBackgroundColor=none;" parent="1" vertex="1">
          <mxGeometry x="810" y="-680" width="120" height="80" as="geometry" />
        </mxCell>
        <mxCell id="5Mzq799TKKF06reo93Cx-144" style="edgeStyle=none;curved=1;rounded=0;orthogonalLoop=1;jettySize=auto;html=1;exitX=1;exitY=0;exitDx=0;exitDy=0;entryX=0;entryY=0.5;entryDx=0;entryDy=0;fontSize=12;startSize=8;endSize=8;labelBackgroundColor=none;fontColor=default;" parent="1" source="5Mzq799TKKF06reo93Cx-130" target="5Mzq799TKKF06reo93Cx-128" edge="1">
          <mxGeometry relative="1" as="geometry" />
        </mxCell>
        <mxCell id="5Mzq799TKKF06reo93Cx-128" value="CRÃ‰ER&lt;div&gt;ABONNEMENT&lt;/div&gt;" style="ellipse;whiteSpace=wrap;html=1;labelBackgroundColor=none;" parent="1" vertex="1">
          <mxGeometry x="1200" y="-1170" width="120" height="80" as="geometry" />
        </mxCell>
        <mxCell id="5Mzq799TKKF06reo93Cx-151" style="edgeStyle=none;curved=1;rounded=0;orthogonalLoop=1;jettySize=auto;html=1;exitX=0.5;exitY=0;exitDx=0;exitDy=0;entryX=0;entryY=0.5;entryDx=0;entryDy=0;fontSize=12;startSize=8;endSize=8;labelBackgroundColor=none;fontColor=default;" parent="1" source="5Mzq799TKKF06reo93Cx-131" target="5Mzq799TKKF06reo93Cx-129" edge="1">
          <mxGeometry relative="1" as="geometry" />
        </mxCell>
        <mxCell id="5Mzq799TKKF06reo93Cx-129" value="CREER PROMOTIONS" style="ellipse;whiteSpace=wrap;html=1;labelBackgroundColor=none;" parent="1" vertex="1">
          <mxGeometry x="1340" y="-1800" width="120" height="80" as="geometry" />
        </mxCell>
        <mxCell id="5Mzq799TKKF06reo93Cx-130" value="GERER&lt;div&gt;ABONNEMENTS&lt;/div&gt;" style="ellipse;whiteSpace=wrap;html=1;labelBackgroundColor=none;" parent="1" vertex="1">
          <mxGeometry x="1010" y="-1060" width="120" height="80" as="geometry" />
        </mxCell>
        <mxCell id="5Mzq799TKKF06reo93Cx-131" value="GERER&lt;div&gt;PROMOTIONS&lt;/div&gt;" style="ellipse;whiteSpace=wrap;html=1;labelBackgroundColor=none;" parent="1" vertex="1">
          <mxGeometry x="990" y="-1500" width="120" height="80" as="geometry" />
        </mxCell>
        <mxCell id="5Mzq799TKKF06reo93Cx-146" style="edgeStyle=none;curved=1;rounded=0;orthogonalLoop=1;jettySize=auto;html=1;exitX=1;exitY=1;exitDx=0;exitDy=0;entryX=0;entryY=0;entryDx=0;entryDy=0;fontSize=12;startSize=8;endSize=8;labelBackgroundColor=none;fontColor=default;" parent="1" source="5Mzq799TKKF06reo93Cx-130" target="5Mzq799TKKF06reo93Cx-135" edge="1">
          <mxGeometry relative="1" as="geometry" />
        </mxCell>
        <mxCell id="5Mzq799TKKF06reo93Cx-135" value="&lt;div&gt;CONSULTER&lt;/div&gt;&lt;div&gt;ABONNEMENTS&lt;span style=&quot;color: rgba(0, 0, 0, 0); font-family: monospace; font-size: 0px; text-align: start; text-wrap: nowrap; background-color: initial;&quot;&gt;%3CmxGraphModel%3E%3Croot%3E%3CmxCell%20id%3D%220%22%2F%3E%3CmxCell%20id%3D%221%22%20parent%3D%220%22%2F%3E%3CmxCell%20id%3D%222%22%20value%3D%22CR%C3%89ER%26lt%3Bdiv%26gt%3BABONNEMENT%26lt%3B%2Fdiv%26gt%3B%22%20style%3D%22ellipse%3BwhiteSpace%3Dwrap%3Bhtml%3D1%3B%22%20vertex%3D%221%22%20parent%3D%221%22%3E%3CmxGeometry%20x%3D%221310%22%20y%3D%22-1030%22%20width%3D%22120%22%20height%3D%2280%22%20as%3D%22geometry%22%2F%3E%3C%2FmxCell%3E%3C%2Froot%3E%3C%2FmxGraphModel%3E&lt;/span&gt;&lt;/div&gt;" style="ellipse;whiteSpace=wrap;html=1;labelBackgroundColor=none;" parent="1" vertex="1">
          <mxGeometry x="1340" y="-900" width="120" height="80" as="geometry" />
        </mxCell>
        <mxCell id="5Mzq799TKKF06reo93Cx-143" style="edgeStyle=none;curved=1;rounded=0;orthogonalLoop=1;jettySize=auto;html=1;exitX=0.5;exitY=1;exitDx=0;exitDy=0;entryX=0;entryY=0;entryDx=0;entryDy=0;fontSize=12;startSize=8;endSize=8;labelBackgroundColor=none;fontColor=default;" parent="1" source="5Mzq799TKKF06reo93Cx-130" target="5Mzq799TKKF06reo93Cx-136" edge="1">
          <mxGeometry relative="1" as="geometry" />
        </mxCell>
        <mxCell id="5Mzq799TKKF06reo93Cx-136" value="&lt;div&gt;MODIFIER&lt;/div&gt;&lt;div&gt;ABONNEMENT&lt;/div&gt;" style="ellipse;whiteSpace=wrap;html=1;labelBackgroundColor=none;" parent="1" vertex="1">
          <mxGeometry x="1220" y="-820" width="120" height="80" as="geometry" />
        </mxCell>
        <mxCell id="5Mzq799TKKF06reo93Cx-147" style="edgeStyle=none;curved=1;rounded=0;orthogonalLoop=1;jettySize=auto;html=1;exitX=1;exitY=0.5;exitDx=0;exitDy=0;fontSize=12;startSize=8;endSize=8;entryX=0;entryY=0.5;entryDx=0;entryDy=0;labelBackgroundColor=none;fontColor=default;" parent="1" source="5Mzq799TKKF06reo93Cx-130" target="5Mzq799TKKF06reo93Cx-137" edge="1">
          <mxGeometry relative="1" as="geometry">
            <mxPoint x="1110" y="-1080" as="sourcePoint" />
          </mxGeometry>
        </mxCell>
        <mxCell id="5Mzq799TKKF06reo93Cx-137" value="&lt;div&gt;SUPPRIMER&lt;/div&gt;&lt;div&gt;ABONNEMENTS&lt;span style=&quot;color: rgba(0, 0, 0, 0); font-family: monospace; font-size: 0px; text-align: start; text-wrap: nowrap; background-color: initial;&quot;&gt;%3CmxGraphModel%3E%3Croot%3E%3CmxCell%20id%3D%220%22%2F%3E%3CmxCell%20id%3D%221%22%20parent%3D%220%22%2F%3E%3CmxCell%20id%3D%222%22%20value%3D%22CR%C3%89ER%26lt%3Bdiv%26gt%3BABONNEMENT%26lt%3B%2Fdiv%26gt%3B%22%20style%3D%22ellipse%3BwhiteSpace%3Dwrap%3Bhtml%3D1%3B%22%20vertex%3D%221%22%20parent%3D%221%22%3E%3CmxGeometry%20x%3D%221310%22%20y%3D%22-1030%22%20width%3D%22120%22%20height%3D%2280%22%20as%3D%22geometry%22%2F%3E%3C%2FmxCell%3E%3C%2Froot%3E%3C%2FmxGraphModel%3E&lt;/span&gt;&lt;/div&gt;" style="ellipse;whiteSpace=wrap;html=1;labelBackgroundColor=none;" parent="1" vertex="1">
          <mxGeometry x="1420" y="-1050" width="120" height="80" as="geometry" />
        </mxCell>
        <mxCell id="5Mzq799TKKF06reo93Cx-154" style="edgeStyle=none;curved=1;rounded=0;orthogonalLoop=1;jettySize=auto;html=1;exitX=1;exitY=1;exitDx=0;exitDy=0;entryX=0;entryY=0.5;entryDx=0;entryDy=0;fontSize=12;startSize=8;endSize=8;labelBackgroundColor=none;fontColor=default;" parent="1" source="5Mzq799TKKF06reo93Cx-131" target="5Mzq799TKKF06reo93Cx-138" edge="1">
          <mxGeometry relative="1" as="geometry" />
        </mxCell>
        <mxCell id="5Mzq799TKKF06reo93Cx-138" value="MODIFIR&lt;div&gt;PROMOTION&lt;/div&gt;" style="ellipse;whiteSpace=wrap;html=1;labelBackgroundColor=none;" parent="1" vertex="1">
          <mxGeometry x="1390" y="-1460" width="120" height="80" as="geometry" />
        </mxCell>
        <mxCell id="5Mzq799TKKF06reo93Cx-153" style="edgeStyle=none;curved=1;rounded=0;orthogonalLoop=1;jettySize=auto;html=1;exitX=0.5;exitY=1;exitDx=0;exitDy=0;entryX=0.5;entryY=0;entryDx=0;entryDy=0;fontSize=12;startSize=8;endSize=8;labelBackgroundColor=none;fontColor=default;" parent="1" source="5Mzq799TKKF06reo93Cx-131" target="5Mzq799TKKF06reo93Cx-139" edge="1">
          <mxGeometry relative="1" as="geometry" />
        </mxCell>
        <mxCell id="5Mzq799TKKF06reo93Cx-139" value="SUPPRIMER&lt;div&gt;PROMOTIONS&lt;/div&gt;" style="ellipse;whiteSpace=wrap;html=1;labelBackgroundColor=none;" parent="1" vertex="1">
          <mxGeometry x="1370" y="-1320" width="120" height="80" as="geometry" />
        </mxCell>
        <mxCell id="5Mzq799TKKF06reo93Cx-152" style="edgeStyle=none;curved=1;rounded=0;orthogonalLoop=1;jettySize=auto;html=1;exitX=1;exitY=0.5;exitDx=0;exitDy=0;entryX=0;entryY=0.5;entryDx=0;entryDy=0;fontSize=12;startSize=8;endSize=8;labelBackgroundColor=none;fontColor=default;" parent="1" source="5Mzq799TKKF06reo93Cx-131" target="5Mzq799TKKF06reo93Cx-140" edge="1">
          <mxGeometry relative="1" as="geometry" />
        </mxCell>
        <mxCell id="5Mzq799TKKF06reo93Cx-140" value="CONSULTER PROMOTIONS" style="ellipse;whiteSpace=wrap;html=1;labelBackgroundColor=none;" parent="1" vertex="1">
          <mxGeometry x="1390" y="-1600" width="120" height="80" as="geometry" />
        </mxCell>
        <mxCell id="5Mzq799TKKF06reo93Cx-149" style="edgeStyle=none;curved=1;rounded=0;orthogonalLoop=1;jettySize=auto;html=1;exitX=0;exitY=1;exitDx=0;exitDy=0;entryX=0.5;entryY=0;entryDx=0;entryDy=0;fontSize=12;startSize=8;endSize=8;labelBackgroundColor=none;fontColor=default;" parent="1" source="5Mzq799TKKF06reo93Cx-129" target="5Mzq799TKKF06reo93Cx-148" edge="1">
          <mxGeometry relative="1" as="geometry" />
        </mxCell>
        <mxCell id="5Mzq799TKKF06reo93Cx-150" style="edgeStyle=none;curved=1;rounded=0;orthogonalLoop=1;jettySize=auto;html=1;fontSize=12;startSize=8;endSize=8;labelBackgroundColor=none;fontColor=default;entryX=1;entryY=1;entryDx=0;entryDy=0;" parent="1" source="5Mzq799TKKF06reo93Cx-128" target="5Mzq799TKKF06reo93Cx-148" edge="1">
          <mxGeometry relative="1" as="geometry" />
        </mxCell>
        <mxCell id="5Mzq799TKKF06reo93Cx-148" value="APPLIQUER&lt;div&gt;PROMOTION&lt;/div&gt;" style="ellipse;whiteSpace=wrap;html=1;labelBackgroundColor=none;" parent="1" vertex="1">
          <mxGeometry x="1010" y="-1310" width="120" height="80" as="geometry" />
        </mxCell>
        <mxCell id="5Mzq799TKKF06reo93Cx-155" value="" style="endArrow=none;html=1;rounded=0;fontSize=12;startSize=8;endSize=8;curved=1;exitX=0.5;exitY=0.5;exitDx=0;exitDy=0;exitPerimeter=0;entryX=0;entryY=0.5;entryDx=0;entryDy=0;labelBackgroundColor=none;fontColor=default;" parent="1" source="5Mzq799TKKF06reo93Cx-109" target="5Mzq799TKKF06reo93Cx-131" edge="1">
          <mxGeometry width="50" height="50" relative="1" as="geometry">
            <mxPoint x="1360" y="-1130" as="sourcePoint" />
            <mxPoint x="1410" y="-1180" as="targetPoint" />
          </mxGeometry>
        </mxCell>
        <mxCell id="5Mzq799TKKF06reo93Cx-156" value="" style="endArrow=none;html=1;rounded=0;fontSize=12;startSize=8;endSize=8;curved=1;entryX=0;entryY=0.5;entryDx=0;entryDy=0;exitX=0.5;exitY=0.5;exitDx=0;exitDy=0;exitPerimeter=0;labelBackgroundColor=none;fontColor=default;" parent="1" source="5Mzq799TKKF06reo93Cx-109" target="5Mzq799TKKF06reo93Cx-148" edge="1">
          <mxGeometry width="50" height="50" relative="1" as="geometry">
            <mxPoint x="1360" y="-1130" as="sourcePoint" />
            <mxPoint x="1410" y="-1180" as="targetPoint" />
          </mxGeometry>
        </mxCell>
        <mxCell id="5Mzq799TKKF06reo93Cx-157" value="" style="endArrow=none;html=1;rounded=0;fontSize=12;startSize=8;endSize=8;curved=1;exitX=0.5;exitY=0.5;exitDx=0;exitDy=0;exitPerimeter=0;entryX=0;entryY=0;entryDx=0;entryDy=0;labelBackgroundColor=none;fontColor=default;" parent="1" source="5Mzq799TKKF06reo93Cx-109" target="5Mzq799TKKF06reo93Cx-130" edge="1">
          <mxGeometry width="50" height="50" relative="1" as="geometry">
            <mxPoint x="830" y="-1210" as="sourcePoint" />
            <mxPoint x="1410" y="-1180" as="targetPoint" />
          </mxGeometry>
        </mxCell>
        <mxCell id="5Mzq799TKKF06reo93Cx-158" value="" style="endArrow=none;html=1;rounded=0;fontSize=12;startSize=8;endSize=8;curved=1;entryX=0;entryY=0;entryDx=0;entryDy=0;labelBackgroundColor=none;fontColor=default;" parent="1" target="5Mzq799TKKF06reo93Cx-100" edge="1">
          <mxGeometry width="50" height="50" relative="1" as="geometry">
            <mxPoint x="-60" y="-880" as="sourcePoint" />
            <mxPoint x="348" y="-708" as="targetPoint" />
          </mxGeometry>
        </mxCell>
        <mxCell id="5Mzq799TKKF06reo93Cx-165" style="edgeStyle=none;curved=1;rounded=0;orthogonalLoop=1;jettySize=auto;html=1;exitX=0.03;exitY=0.775;exitDx=0;exitDy=0;entryX=1;entryY=0;entryDx=0;entryDy=0;fontSize=12;startSize=8;endSize=8;exitPerimeter=0;labelBackgroundColor=none;fontColor=default;" parent="1" source="5Mzq799TKKF06reo93Cx-117" target="5Mzq799TKKF06reo93Cx-25" edge="1">
          <mxGeometry relative="1" as="geometry" />
        </mxCell>
        <mxCell id="RqmRnLioh3WJMFCIqnG9-20" style="rounded=0;orthogonalLoop=1;jettySize=auto;html=1;exitX=0.5;exitY=0.5;exitDx=0;exitDy=0;exitPerimeter=0;entryX=0;entryY=1;entryDx=0;entryDy=0;" edge="1" parent="1" source="RqmRnLioh3WJMFCIqnG9-2" target="RqmRnLioh3WJMFCIqnG9-19">
          <mxGeometry relative="1" as="geometry" />
        </mxCell>
        <mxCell id="RqmRnLioh3WJMFCIqnG9-2" value="DJAGO USER&lt;div&gt;&lt;br&gt;&lt;/div&gt;" style="shape=umlActor;verticalLabelPosition=bottom;verticalAlign=top;html=1;outlineConnect=0;labelBackgroundColor=none;" vertex="1" parent="1">
          <mxGeometry x="40" y="-170" width="60" height="120" as="geometry" />
        </mxCell>
        <mxCell id="RqmRnLioh3WJMFCIqnG9-10" style="rounded=0;orthogonalLoop=1;jettySize=auto;html=1;exitX=0.5;exitY=1;exitDx=0;exitDy=0;entryX=1;entryY=0;entryDx=0;entryDy=0;" edge="1" parent="1" source="RqmRnLioh3WJMFCIqnG9-3" target="RqmRnLioh3WJMFCIqnG9-7">
          <mxGeometry relative="1" as="geometry" />
        </mxCell>
        <mxCell id="RqmRnLioh3WJMFCIqnG9-11" style="rounded=0;orthogonalLoop=1;jettySize=auto;html=1;exitX=0;exitY=1;exitDx=0;exitDy=0;entryX=1;entryY=0;entryDx=0;entryDy=0;" edge="1" parent="1" source="RqmRnLioh3WJMFCIqnG9-3" target="RqmRnLioh3WJMFCIqnG9-4">
          <mxGeometry relative="1" as="geometry" />
        </mxCell>
        <mxCell id="RqmRnLioh3WJMFCIqnG9-12" style="rounded=0;orthogonalLoop=1;jettySize=auto;html=1;exitX=1;exitY=1;exitDx=0;exitDy=0;entryX=0;entryY=0;entryDx=0;entryDy=0;" edge="1" parent="1" source="RqmRnLioh3WJMFCIqnG9-3" target="RqmRnLioh3WJMFCIqnG9-6">
          <mxGeometry relative="1" as="geometry" />
        </mxCell>
        <mxCell id="RqmRnLioh3WJMFCIqnG9-3" value="GERER&lt;div&gt;&lt;span style=&quot;background-color: initial;&quot;&gt;ACCES&lt;/span&gt;&lt;/div&gt;" style="ellipse;whiteSpace=wrap;html=1;" vertex="1" parent="1">
          <mxGeometry x="500" y="-220" width="120" height="80" as="geometry" />
        </mxCell>
        <mxCell id="RqmRnLioh3WJMFCIqnG9-17" style="rounded=0;orthogonalLoop=1;jettySize=auto;html=1;exitX=0;exitY=0.5;exitDx=0;exitDy=0;entryX=0.5;entryY=0.5;entryDx=0;entryDy=0;entryPerimeter=0;" edge="1" parent="1" source="RqmRnLioh3WJMFCIqnG9-4" target="RqmRnLioh3WJMFCIqnG9-2">
          <mxGeometry relative="1" as="geometry" />
        </mxCell>
        <mxCell id="RqmRnLioh3WJMFCIqnG9-4" value="CREER&lt;div&gt;UTILISATEUR&lt;/div&gt;" style="ellipse;whiteSpace=wrap;html=1;" vertex="1" parent="1">
          <mxGeometry x="400" y="-80" width="120" height="80" as="geometry" />
        </mxCell>
        <mxCell id="RqmRnLioh3WJMFCIqnG9-13" style="rounded=0;orthogonalLoop=1;jettySize=auto;html=1;exitX=1;exitY=0.5;exitDx=0;exitDy=0;entryX=0;entryY=0;entryDx=0;entryDy=0;" edge="1" parent="1" source="RqmRnLioh3WJMFCIqnG9-3" target="RqmRnLioh3WJMFCIqnG9-5">
          <mxGeometry relative="1" as="geometry" />
        </mxCell>
        <mxCell id="RqmRnLioh3WJMFCIqnG9-5" value="SUPPRIMER&lt;div&gt;COMPTE UTILISATEUR&lt;/div&gt;" style="ellipse;whiteSpace=wrap;html=1;" vertex="1" parent="1">
          <mxGeometry x="660" y="-70" width="120" height="80" as="geometry" />
        </mxCell>
        <mxCell id="RqmRnLioh3WJMFCIqnG9-6" value="MODIFIER&lt;div&gt;UTILISATEUR&lt;/div&gt;" style="ellipse;whiteSpace=wrap;html=1;" vertex="1" parent="1">
          <mxGeometry x="605" y="30" width="125" height="80" as="geometry" />
        </mxCell>
        <mxCell id="RqmRnLioh3WJMFCIqnG9-7" value="CONSULTER COMPTES" style="ellipse;whiteSpace=wrap;html=1;" vertex="1" parent="1">
          <mxGeometry x="450" y="30" width="120" height="80" as="geometry" />
        </mxCell>
        <mxCell id="RqmRnLioh3WJMFCIqnG9-21" style="rounded=0;orthogonalLoop=1;jettySize=auto;html=1;exitX=1;exitY=0;exitDx=0;exitDy=0;entryX=0;entryY=1;entryDx=0;entryDy=0;" edge="1" parent="1" source="RqmRnLioh3WJMFCIqnG9-19" target="5Mzq799TKKF06reo93Cx-100">
          <mxGeometry relative="1" as="geometry" />
        </mxCell>
        <mxCell id="RqmRnLioh3WJMFCIqnG9-19" value="AVOIR&lt;div&gt;ACCES&lt;/div&gt;" style="ellipse;whiteSpace=wrap;html=1;" vertex="1" parent="1">
          <mxGeometry x="170" y="-260" width="120" height="80" as="geometry" />
        </mxCell>
      </root>
    </mxGraphModel>
  </diagram>
</mxfile>
